<mxfile host="app.diagrams.net" modified="2024-05-29T10:55:57.861Z" agent="Mozilla/5.0 (Windows NT 10.0; Win64; x64) AppleWebKit/537.36 (KHTML, like Gecko) Chrome/121.0.0.0 Safari/537.36" etag="pwbVy9Sw4lOaKPZxLMHe" version="24.4.9" type="device">
  <diagram name="PÃ¡gina-1" id="l_zszc8HatbYSyrAE0Dn">
    <mxGraphModel dx="1434" dy="782" grid="1" gridSize="10" guides="1" tooltips="1" connect="1" arrows="1" fold="1" page="1" pageScale="1" pageWidth="827" pageHeight="1169" math="0" shadow="0">
      <root>
        <mxCell id="0" />
        <mxCell id="1" parent="0" />
        <mxCell id="xjNri1klXUxe7PRWAN-7-1" value="" style="rounded=1;whiteSpace=wrap;html=1;fillColor=#e6d0de;gradientColor=#d5739d;strokeColor=#996185;" vertex="1" parent="1">
          <mxGeometry x="330" y="20" width="470" height="340" as="geometry" />
        </mxCell>
        <mxCell id="xjNri1klXUxe7PRWAN-7-2" value="" style="rounded=1;whiteSpace=wrap;html=1;fillColor=#e6d0de;gradientColor=#d5739d;strokeColor=#996185;" vertex="1" parent="1">
          <mxGeometry x="80" y="20" width="200" height="340" as="geometry" />
        </mxCell>
        <mxCell id="xjNri1klXUxe7PRWAN-7-3" value="" style="rounded=1;whiteSpace=wrap;html=1;fillColor=#e6d0de;gradientColor=#d5739d;strokeColor=#996185;" vertex="1" parent="1">
          <mxGeometry x="80" y="400" width="200" height="340" as="geometry" />
        </mxCell>
        <mxCell id="xjNri1klXUxe7PRWAN-7-4" value="" style="rounded=1;whiteSpace=wrap;html=1;fillColor=#e6d0de;gradientColor=#d5739d;strokeColor=#996185;" vertex="1" parent="1">
          <mxGeometry x="330" y="390" width="470" height="340" as="geometry" />
        </mxCell>
        <mxCell id="xjNri1klXUxe7PRWAN-7-5" value="" style="rounded=1;whiteSpace=wrap;html=1;fillColor=#e6d0de;gradientColor=#d5739d;strokeColor=#996185;" vertex="1" parent="1">
          <mxGeometry x="80" y="780" width="200" height="340" as="geometry" />
        </mxCell>
        <mxCell id="xjNri1klXUxe7PRWAN-7-6" value="" style="rounded=1;whiteSpace=wrap;html=1;fillColor=#e6d0de;gradientColor=#d5739d;strokeColor=#996185;" vertex="1" parent="1">
          <mxGeometry x="345" y="780" width="470" height="340" as="geometry" />
        </mxCell>
        <mxCell id="xjNri1klXUxe7PRWAN-7-7" value="" style="rounded=1;whiteSpace=wrap;html=1;fillColor=#e6d0de;gradientColor=#d5739d;strokeColor=#996185;" vertex="1" parent="1">
          <mxGeometry x="80" y="1169" width="200" height="340" as="geometry" />
        </mxCell>
        <mxCell id="xjNri1klXUxe7PRWAN-7-8" value="" style="rounded=1;whiteSpace=wrap;html=1;fillColor=#e6d0de;gradientColor=#d5739d;strokeColor=#996185;" vertex="1" parent="1">
          <mxGeometry x="340" y="1169" width="470" height="340" as="geometry" />
        </mxCell>
        <mxCell id="xjNri1klXUxe7PRWAN-7-19" value="" style="rounded=0;whiteSpace=wrap;html=1;" vertex="1" parent="1">
          <mxGeometry x="95" y="60" width="170" height="20" as="geometry" />
        </mxCell>
        <mxCell id="xjNri1klXUxe7PRWAN-7-20" value="" style="rounded=0;whiteSpace=wrap;html=1;" vertex="1" parent="1">
          <mxGeometry x="95" y="1200" width="170" height="20" as="geometry" />
        </mxCell>
        <mxCell id="xjNri1klXUxe7PRWAN-7-21" value="" style="rounded=0;whiteSpace=wrap;html=1;" vertex="1" parent="1">
          <mxGeometry x="95" y="820" width="170" height="20" as="geometry" />
        </mxCell>
        <mxCell id="xjNri1klXUxe7PRWAN-7-22" value="" style="rounded=0;whiteSpace=wrap;html=1;" vertex="1" parent="1">
          <mxGeometry x="95" y="440" width="170" height="20" as="geometry" />
        </mxCell>
        <mxCell id="xjNri1klXUxe7PRWAN-7-23" value="" style="rounded=0;whiteSpace=wrap;html=1;" vertex="1" parent="1">
          <mxGeometry x="370" y="60" width="390" height="20" as="geometry" />
        </mxCell>
        <mxCell id="xjNri1klXUxe7PRWAN-7-24" value="" style="rounded=0;whiteSpace=wrap;html=1;" vertex="1" parent="1">
          <mxGeometry x="370" y="440" width="390" height="20" as="geometry" />
        </mxCell>
        <mxCell id="xjNri1klXUxe7PRWAN-7-25" value="" style="rounded=0;whiteSpace=wrap;html=1;" vertex="1" parent="1">
          <mxGeometry x="380" y="820" width="390" height="20" as="geometry" />
        </mxCell>
        <mxCell id="xjNri1klXUxe7PRWAN-7-26" value="" style="rounded=0;whiteSpace=wrap;html=1;" vertex="1" parent="1">
          <mxGeometry x="370" y="1200" width="390" height="20" as="geometry" />
        </mxCell>
      </root>
    </mxGraphModel>
  </diagram>
</mxfile>
